<?xml version="1.0" standalone="no"?>
<!DOCTYPE svg PUBLIC "-//W3C//DTD SVG 20010904//EN"
 "http://www.w3.org/TR/2001/REC-SVG-20010904/DTD/svg10.dtd">
<svg version="1.0" xmlns="http://www.w3.org/2000/svg"
 width="162.000000pt" height="196.000000pt" viewBox="0 0 162.000000 196.000000"
 preserveAspectRatio="xMidYMid meet">

<g transform="translate(0.000000,196.000000) scale(0.100000,-0.100000)"
fill="#000000" stroke="none">
<path d="M10 1016 l0 -946 105 0 105 0 0 -35 0 -35 268 0 c278 0 444 16 572
55 198 60 399 258 460 452 42 134 52 213 52 378 0 129 -5 179 -23 255 -12 52
-24 112 -26 133 -4 30 -8 35 -18 27 -18 -15 -26 -1 -30 53 -2 26 -23 82 -59
152 -119 234 -290 360 -581 427 -80 19 -130 22 -457 25 l-368 5 0 -946z m825
846 c210 -47 328 -114 453 -256 52 -60 54 -75 5 -42 l-37 26 -29 -28 c-16 -15
-63 -62 -105 -104 -42 -43 -81 -78 -86 -78 -12 0 -46 30 -46 41 0 5 44 52 97
105 l96 97 -49 18 c-27 11 -56 19 -64 19 -9 0 -54 -38 -100 -85 -81 -81 -87
-85 -120 -79 -19 3 -38 8 -42 10 -4 3 31 43 78 89 46 46 81 85 77 88 -4 3 -37
8 -73 12 l-65 7 -91 -92 -90 -91 -49 3 -49 3 82 83 c45 45 82 84 82 87 0 3
-35 5 -78 5 l-77 0 -163 -162 -162 -162 0 -84 0 -84 108 109 107 108 3 -49 3
-50 -110 -110 -111 -110 0 -78 c0 -43 3 -78 6 -78 4 0 51 45 105 100 54 55
101 100 104 100 3 0 5 -21 5 -47 0 -48 -1 -49 -110 -158 l-110 -109 0 -84 0
-83 105 106 c57 58 107 105 110 105 3 0 5 -21 5 -48 0 -47 -1 -48 -110 -156
l-110 -109 0 -131 c0 -72 -3 -168 -7 -213 l-6 -83 -73 0 -74 0 0 868 c0 478 3
872 8 876 4 5 156 6 337 3 280 -5 344 -8 420 -25z m530 -373 l16 -31 -118
-119 c-65 -66 -119 -121 -121 -123 -2 -3 12 -27 32 -56 l35 -51 107 106 c58
59 108 104 110 102 3 -3 7 -21 11 -41 5 -34 2 -39 -96 -138 l-102 -103 8 -60
c12 -91 9 -253 -6 -315 -22 -88 -56 -156 -108 -211 -91 -98 -191 -129 -415
-129 l-148 0 0 90 0 90 88 0 c159 0 273 41 354 127 55 60 69 85 99 183 32 102
33 302 2 398 l-21 62 121 124 c67 68 125 125 129 125 4 1 15 -13 23 -30z
m-775 -22 c0 -2 -18 -21 -40 -42 l-40 -39 0 42 0 42 40 0 c22 0 40 -1 40 -3z
m238 -21 c3 -4 -16 -28 -42 -55 l-47 -48 77 -6 c73 -5 79 -4 100 19 13 13 27
24 32 24 16 0 44 -39 39 -54 -4 -9 1 -17 12 -21 42 -13 81 -153 81 -290 0
-310 -139 -465 -416 -465 l-94 0 0 177 0 176 -23 -21 c-33 -31 -37 -28 -37 23
0 36 6 50 30 75 28 29 30 35 30 112 l0 82 -30 -29 -30 -29 0 51 c0 40 5 56 27
79 14 16 29 42 33 59 4 23 12 31 33 33 17 2 47 25 84 62 54 55 61 59 96 56 21
-3 41 -7 45 -10z"/>
<path d="M226 1684 c-8 -20 -8 -99 0 -156 l6 -46 104 103 c57 57 104 106 104
109 0 3 -47 6 -104 6 -85 0 -105 -3 -110 -16z"/>
</g>
</svg>
